# xmcd
# 
# Track frame offsets:
#     150
#     21802
#     42862
#     65875
#     86317
#     103612
#     123367
#     146062
#     163757
#     183285
# 
# Disc length: 2699
# 
# Revision: 5
# Processed by: cddbd v1.5.2PL0 Copyright (c) Steve Scherf et al.
# Submitted via: fre:ac v1.0.17
# 
DISCID=840a890a
DTITLE=The Doobie Brothers - Brotherhood
DYEAR=1991
DGENRE=Southern Rock
TTITLE0=Something You Said
TTITLE1=Is Love Enough
TTITLE2=Dangerous
TTITLE3=Our Love
TTITLE4=Divided Highway
TTITLE5=Under The Spell
TTITLE6=Excited
TTITLE7=This Train I'm On
TTITLE8=Showdown
TTITLE9=Rollin' On
EXTD=YEAR: 1991
EXTT0=
EXTT1=
EXTT2=
EXTT3=
EXTT4=
EXTT5=
EXTT6=
EXTT7=
EXTT8=
EXTT9=
PLAYORDER=
